<?xml version="1.0" standalone="no"?>
<!DOCTYPE svg PUBLIC "-//W3C//DTD SVG 20010904//EN"
 "http://www.w3.org/TR/2001/REC-SVG-20010904/DTD/svg10.dtd">
<svg version="1.0" xmlns="http://www.w3.org/2000/svg"
 width="2000.000000pt" height="2000.000000pt" viewBox="0 0 2000.000000 2000.000000"
 preserveAspectRatio="xMidYMid meet">
<metadata>
Created by potrace 1.11, written by Peter Selinger 2001-2013
</metadata>
<g transform="translate(0.000000,2000.000000) scale(0.100000,-0.100000)"
fill="#000000" stroke="none">
<path d="M8959 19996 c-2 -2 -74 -7 -159 -10 -85 -4 -177 -9 -205 -12 -27 -2
-79 -7 -115 -9 -59 -3 -156 -14 -280 -31 -25 -4 -58 -8 -75 -9 -16 -2 -30 -4
-30 -5 0 -1 -13 -3 -30 -5 -71 -9 -144 -21 -185 -31 -14 -3 -36 -8 -50 -10
-14 -3 -38 -7 -55 -11 -16 -3 -39 -7 -50 -9 -11 -2 -29 -5 -40 -8 -11 -3 -50
-12 -88 -20 -174 -39 -460 -119 -624 -177 -46 -15 -83 -26 -83 -22 0 3 -6 1
-12 -4 -7 -6 -31 -16 -53 -23 -22 -7 -44 -15 -50 -19 -5 -3 -13 -6 -17 -7 -5
-1 -10 -3 -13 -4 -3 -1 -8 -3 -12 -5 -5 -1 -21 -7 -36 -13 -16 -7 -30 -12 -33
-12 -5 0 -172 -69 -239 -99 -22 -10 -69 -31 -105 -47 -72 -31 -416 -204 -495
-249 -27 -16 -64 -36 -81 -45 -235 -132 -768 -501 -889 -617 -13 -13 -28 -23
-34 -23 -5 0 -11 -4 -13 -9 -1 -4 -39 -39 -83 -76 -211 -178 -468 -431 -665
-655 -122 -139 -132 -152 -162 -192 -15 -20 -34 -42 -41 -50 -7 -7 -30 -35
-50 -63 -21 -27 -49 -63 -62 -80 -41 -51 -88 -116 -145 -200 -30 -44 -63 -88
-72 -99 -10 -11 -18 -26 -18 -33 0 -7 -4 -13 -8 -13 -4 0 -16 -15 -27 -32 -10
-18 -38 -63 -62 -100 -48 -75 -149 -246 -208 -353 -49 -90 -175 -333 -177
-342 -2 -8 -47 -109 -95 -213 -103 -222 -333 -892 -326 -950 1 -3 -3 -12 -8
-21 -4 -9 -10 -27 -13 -40 -2 -13 -12 -55 -21 -94 -9 -38 -18 -78 -20 -88 -2
-9 -6 -21 -9 -25 -2 -4 -7 -29 -10 -56 -3 -26 -8 -51 -10 -54 -2 -4 -7 -25
-10 -47 -4 -22 -8 -47 -11 -55 -2 -8 -6 -31 -9 -50 -3 -19 -8 -46 -10 -60 -12
-63 -29 -168 -31 -200 -2 -19 -6 -51 -9 -70 -25 -163 -43 -404 -51 -675 -2
-88 -7 -223 -11 -300 -11 -237 -7 -511 11 -646 3 -20 7 -60 9 -90 3 -30 7 -65
10 -79 2 -14 7 -43 10 -65 12 -89 18 -122 27 -160 6 -22 11 -51 13 -65 1 -14
5 -36 9 -50 3 -14 16 -65 27 -115 12 -49 25 -101 31 -115 5 -14 11 -36 14 -50
6 -33 78 -254 85 -260 3 -3 6 -12 8 -20 2 -8 13 -39 25 -68 17 -43 19 -56 9
-70 -22 -30 -134 -265 -137 -287 -1 -5 -8 -23 -15 -40 -14 -35 -51 -153 -54
-175 -1 -9 -5 -20 -8 -25 -3 -6 -9 -26 -12 -45 -3 -19 -8 -46 -11 -60 -12 -59
-34 -200 -40 -255 -14 -130 -16 -165 -16 -315 0 -164 6 -264 26 -415 2 -16 7
-55 10 -85 4 -30 9 -58 11 -61 2 -4 6 -24 10 -45 9 -60 62 -275 85 -346 12
-35 22 -67 24 -73 1 -5 6 -19 10 -30 4 -11 19 -49 33 -85 47 -124 151 -341
178 -371 8 -8 14 -19 14 -23 0 -11 83 -136 139 -211 56 -74 79 -100 159 -182
35 -36 65 -74 68 -86 2 -12 7 -38 9 -57 3 -19 8 -46 12 -60 3 -14 7 -34 9 -46
10 -78 117 -441 153 -519 5 -11 26 -58 47 -105 161 -366 410 -680 677 -854 64
-41 236 -126 258 -126 18 -1 52 -27 55 -43 2 -6 7 -26 12 -44 6 -17 8 -34 5
-37 -3 -2 -1 -11 3 -18 5 -7 9 -15 9 -18 1 -3 4 -21 8 -40 4 -19 9 -44 11 -55
2 -11 9 -40 16 -65 7 -25 14 -53 16 -63 2 -10 6 -28 10 -39 3 -11 7 -30 9 -41
2 -20 23 -109 77 -337 11 -47 21 -93 24 -103 2 -10 5 -26 8 -35 3 -9 7 -28 10
-42 2 -14 13 -63 25 -110 30 -125 47 -202 57 -254 2 -16 7 -33 10 -38 3 -5 8
-21 10 -36 3 -15 12 -56 20 -92 9 -36 17 -72 19 -80 2 -8 12 -54 24 -102 11
-48 22 -98 25 -110 2 -13 18 -84 36 -158 18 -74 34 -143 36 -152 2 -10 6 -27
9 -38 3 -11 7 -30 10 -42 28 -129 32 -147 34 -150 2 -2 4 -14 7 -28 2 -14 16
-72 30 -130 14 -58 27 -114 29 -125 2 -11 6 -31 10 -45 3 -14 8 -36 11 -50 3
-14 9 -41 14 -60 5 -19 11 -47 14 -62 2 -15 7 -31 9 -35 3 -5 8 -24 11 -44 5
-32 15 -74 46 -184 13 -47 78 -238 93 -275 5 -14 11 -30 13 -37 5 -28 157
-337 166 -341 5 -2 8 -8 8 -14 0 -10 98 -178 109 -188 3 -3 12 -17 20 -32 8
-16 18 -28 23 -28 4 0 8 -5 8 -11 0 -9 141 -199 174 -236 6 -6 32 -35 58 -65
129 -147 288 -296 447 -415 53 -40 101 -77 108 -83 7 -5 16 -10 22 -10 5 0 11
-4 13 -8 3 -9 93 -72 102 -72 3 0 30 -15 59 -34 68 -44 253 -140 332 -173 33
-14 76 -32 95 -40 65 -28 75 -32 140 -53 36 -12 74 -26 85 -31 11 -4 47 -15
80 -24 124 -34 121 -32 169 -108 24 -40 52 -81 60 -92 159 -208 243 -294 441
-453 55 -44 213 -139 320 -192 110 -54 317 -130 390 -144 17 -3 46 -9 65 -14
19 -5 40 -10 45 -10 6 -1 24 -4 40 -7 197 -34 567 -39 710 -11 11 2 42 7 69
10 27 4 53 9 57 12 4 2 20 6 36 8 47 6 173 39 173 45 0 3 10 7 23 8 12 0 36 6
52 13 17 6 31 11 33 11 1 -1 16 6 33 15 40 20 70 26 83 15 17 -13 213 -78 291
-96 102 -24 106 -25 155 -31 25 -3 56 -7 70 -10 159 -29 557 -22 715 13 44 9
57 12 85 17 14 2 25 5 25 6 0 1 11 3 25 6 14 2 32 7 40 11 8 3 22 7 30 8 35 7
60 15 155 50 55 21 103 43 107 49 4 6 8 8 8 3 0 -12 257 127 305 165 5 4 51
39 101 77 171 130 316 288 454 493 39 60 78 108 85 108 26 0 250 71 363 115
153 60 327 145 481 236 117 68 317 214 447 325 138 118 342 338 452 486 59 80
152 218 152 225 0 4 6 14 14 22 31 36 140 242 200 379 80 181 167 449 202 622
6 31 72 315 81 350 3 14 7 31 9 39 1 7 8 34 14 60 6 25 12 55 15 66 6 29 55
240 105 450 23 99 44 191 46 205 3 14 7 33 10 42 3 9 6 25 8 35 2 10 13 56 24
103 18 73 30 127 38 165 1 6 16 68 33 139 17 71 33 141 34 155 2 15 6 31 9 36
3 6 9 28 13 50 5 22 9 45 11 50 2 6 5 21 8 35 3 14 17 75 32 135 14 61 27 117
29 125 2 8 9 38 15 65 6 28 13 57 15 65 2 8 8 35 14 60 7 25 14 56 17 70 9 43
32 142 38 165 4 15 28 128 30 140 1 6 5 16 9 23 5 6 6 16 3 21 -8 12 13 28 49
37 39 9 189 76 193 86 2 5 8 8 12 8 12 0 80 44 155 99 49 37 220 202 261 253
175 217 326 497 422 783 55 164 78 251 108 400 11 55 14 70 20 114 5 37 16 54
63 101 31 31 74 78 96 105 22 27 47 57 56 66 60 61 327 519 303 519 -4 0 -2 6
4 12 12 16 80 191 86 223 2 12 11 36 20 53 8 16 13 32 10 35 -3 3 -1 13 5 24
9 18 42 134 46 163 1 8 9 49 18 90 17 78 24 118 33 185 3 22 7 51 10 65 26
142 25 666 -2 793 -3 16 -7 38 -9 50 -5 36 -16 99 -26 147 -5 25 -12 56 -14
70 -3 14 -8 32 -12 40 -3 8 -7 22 -8 30 -12 76 -126 352 -189 455 -23 38 -24
42 -9 75 8 19 16 43 18 53 2 9 7 23 12 30 4 6 8 19 10 27 1 8 6 23 12 35 24
49 128 421 135 480 1 12 5 25 8 30 3 6 9 30 12 55 6 44 11 70 21 120 3 14 7
42 10 63 3 20 8 56 11 80 11 85 20 175 30 302 7 89 6 455 -1 525 -8 90 -16
218 -21 360 -8 246 -16 358 -39 550 -3 19 -7 60 -10 90 -6 56 -12 94 -20 140
-5 29 -12 68 -20 125 -4 22 -11 59 -16 83 -5 24 -12 61 -14 84 -3 22 -8 44
-11 49 -2 4 -7 27 -10 51 -4 24 -10 48 -15 54 -5 6 -6 14 -3 17 4 3 3 14 -1
24 -9 21 -11 28 -18 65 -13 67 -108 415 -132 486 -2 7 -4 14 -5 17 0 3 -7 19
-15 35 -8 16 -15 32 -14 35 2 13 -13 65 -20 65 -4 0 -7 8 -8 18 -2 20 -85 246
-109 296 -8 16 -14 33 -14 37 0 5 -12 34 -26 66 -14 32 -31 72 -38 88 -8 17
-23 50 -34 75 -12 25 -26 56 -32 70 -5 14 -14 32 -19 40 -5 8 -33 62 -61 120
-29 58 -72 141 -96 185 -24 44 -47 87 -51 95 -5 8 -26 46 -48 83 -22 38 -51
88 -64 110 -26 45 -247 381 -267 407 -7 8 -48 62 -91 120 -95 128 -79 108
-208 265 -151 183 -234 274 -440 480 -176 175 -202 200 -335 315 -35 30 -71
62 -80 70 -9 9 -34 29 -55 45 -22 17 -46 36 -53 43 -8 7 -30 25 -50 40 -21 15
-39 29 -42 33 -3 3 -61 47 -130 97 -69 51 -129 95 -135 100 -14 11 -259 171
-325 212 -64 41 -75 47 -211 123 -57 32 -111 62 -119 68 -8 5 -109 56 -225
113 -183 90 -232 113 -255 121 -3 1 -16 7 -30 13 -126 54 -443 179 -475 186
-5 1 -77 24 -160 50 -82 26 -166 51 -185 56 -19 5 -46 13 -60 17 -14 4 -29 8
-35 9 -31 8 -56 15 -105 28 -30 9 -100 25 -155 36 -55 11 -118 25 -140 29 -38
9 -125 27 -170 35 -11 2 -45 7 -75 11 -30 4 -64 9 -75 11 -25 5 -66 11 -125
19 -25 3 -56 7 -70 9 -14 3 -59 8 -100 11 -41 3 -88 8 -105 10 -16 2 -75 7
-130 11 -55 3 -127 9 -160 11 -73 6 -2299 15 -2306 9z"/>
</g>
</svg>
